<?xml version="1.0" encoding="UTF-8"?>
<svg width="1200px" height="629px" viewBox="0 0 1200 629" version="1.1" xmlns="http://www.w3.org/2000/svg" xmlns:xlink="http://www.w3.org/1999/xlink">
    <title>logo</title>
    <g id="logo" stroke="none" stroke-width="1" fill="none" fill-rule="evenodd">
        <g id="Assets/Logo" transform="translate(0.000000, -0.000000)">
            <g id="Group" transform="translate(0.000000, 0.000000)">
                <rect id="Rectangle" fill="#FFFFFF" x="0" y="0" width="1200" height="626.086957"></rect>
                <g id="mob_logo_swiss_blue" transform="translate(224.347826, 229.565217)" fill-rule="nonzero">
                    <path d="M13.5931664,33.8458013 L11.8392095,33.8458013 L11.6826062,34.6914591 L11.6826062,164.045785 L10.6490244,164.233709 L1.03358178,164.233709 L0,164.233709 L0,163.200127 L0,6.28362057 L0,3.99721239 L1.78527762,3.80928843 L25.7455825,3.80928843 L27.3742568,3.80928843 L28.094632,5.34400077 C48.2024956,45.0168367 68.3103593,84.6896726 88.418223,124.362509 L89.4831254,126.398351 L91.2997237,126.398351 L91.7382129,125.521373 L145.296541,18.1854713 C147.395026,13.9258616 149.556151,9.63493118 151.560673,5.34400077 L152.249728,3.96589173 C153.596516,3.77796777 177.306256,3.74664711 179.122854,3.96589173 L179.342099,4.84287021 L179.342099,161.822018 L179.342099,163.920502 L179.122854,164.139747 L179.122854,164.139747 L178.151914,164.139747 L153.377272,164.139747 L152.907462,164.139747 L152.656897,163.983143 L152.656897,163.137486 L152.656897,33.1254261 L151.591994,33.1254261 L150.90294,34.4408938 L121.367557,93.0105279 C109.778913,116.208697 98.1693885,139.406866 86.5389834,162.605034 L85.6933256,164.202388 C83.8767273,164.202388 82.0914497,164.202388 80.2122101,164.202388 L79.3665523,162.605034 L53.7149318,112.491978 C40.6228959,86.7881568 27.5517405,61.1260961 14.5014655,35.5057963 L13.5931664,33.8458013" id="Path" fill="#002E5A"></path>
                    <path d="M389.879919,82.6747101 C389.952973,108.298305 378.270691,132.540194 358.183067,148.448096 C347.211121,157.185907 334.33511,163.216173 320.598275,166.050307 C312.723141,167.685694 304.669649,168.296286 296.63797,167.866905 C282.400381,167.325082 268.501069,163.372264 256.109036,156.340902 C239.582882,147.124483 226.649493,132.602008 219.401223,115.122914 C216.636954,108.635251 214.741335,101.811022 213.763504,94.8271262 C210.00388,68.8159843 219.169118,42.6062087 238.318901,24.6062066 C250.134937,13.3389802 264.868363,5.60338896 280.852358,2.2745761 C285.735309,1.24728426 290.686656,0.577334616 295.66703,0.27005386 C300.337318,-0.0900179535 305.028397,-0.0900179535 309.698685,0.27005386 C331.121315,1.89275017 351.239314,11.1899572 366.357759,26.4541256 C377.580706,37.6357963 385.214136,51.9103106 388.282221,67.4528694 C389.341901,72.455602 389.835693,77.5616261 389.754292,82.6747101 M270.735784,84.4286671 L271.362198,84.7418737 C274.80866,87.5625814 278.636267,89.8823432 282.731597,91.6324189 C288.779678,94.3200179 295.072969,96.4177817 301.523993,97.8965509 C306.544259,99.0674538 311.626164,99.9562644 316.745834,100.558807 C320.723558,100.997296 324.732602,101.467106 328.710326,101.748992 C332.68805,102.030878 337.386149,102.12484 341.739721,102.312764 C346.093292,102.500688 351.135919,102.312764 355.740056,102.156161 L356.773637,101.936916 L356.961561,101.216541 C357.624916,96.5867737 358.022296,91.9227833 358.151746,87.2475265 C358.444136,79.2214542 357.951101,71.1860211 356.679675,63.255901 C355.714745,57.1928195 354.173035,51.2357363 352.075538,45.4657661 C349.719955,38.859336 346.302933,32.6811909 341.958965,27.1745007 C333.231198,15.9517959 320.045595,9.09025019 305.846244,8.38210478 C301.184816,8.02739176 296.498131,8.20504743 291.87723,8.914556 C287.360814,9.59178387 282.956831,10.8771567 278.785194,12.7356765 C270.130051,16.7074261 262.785748,23.0630727 257.612428,31.0582626 C254.096828,36.4846154 251.336153,42.3642214 249.406415,48.5351908 C246.477558,57.9898721 244.854745,67.800516 244.583033,77.6947252 C244.200912,86.5979212 244.715069,95.5169785 246.117746,104.317286 C247.058868,110.166169 248.515741,115.920293 250.471317,121.512328 C252.795901,128.273896 256.190357,134.618672 260.525249,140.304724 C265.725148,147.36546 272.722859,152.903062 280.789716,156.340902 C285.421426,158.266242 290.324168,159.460229 295.322503,159.880137 C300.9431,160.428762 306.612286,160.207474 312.173018,159.222403 C324.307018,156.881826 335.092892,150.004852 342.334813,139.991518 L342.710661,139.177181 L339.985764,138.926615 C337.44879,138.926615 334.911817,138.67605 332.343523,138.456805 C327.175614,137.986996 321.976384,137.423224 316.871117,136.640207 C310.321459,135.637106 303.837119,134.246111 297.452307,132.474559 C290.771584,130.66066 284.295718,128.162676 278.12746,125.020242 C272.619388,122.294785 267.593991,118.68708 263.250147,114.339897 C256.98575,108.051804 253.175514,99.7314906 252.50716,90.880723 C252.16666,86.2579996 252.536356,81.6103937 253.603383,77.0996327 C254.896882,71.4859868 256.863433,66.0490493 259.460347,60.9068515 C264.87114,50.4383531 271.550989,40.6763058 279.348966,31.8412791 L279.756135,31.4654312 L279.004439,32.8748609 C275.871233,36.857542 273.004378,41.0427308 270.422578,45.4031248 C266.582435,51.7826427 263.621948,58.6518147 261.621472,65.8241951 C259.589162,73.123593 259.204035,80.7833515 260.493929,88.2497876 C261.307134,93.1436614 263.379529,97.7417875 266.507495,101.592389 L269.639561,105.068982 C271.920964,107.324391 274.45362,109.310581 277.18784,110.988587 C281.087263,113.493161 285.232741,115.592137 289.559501,117.252719 C300.378237,121.21408 311.645127,123.823033 323.103928,125.020242 C326.893728,125.490052 330.652207,125.771938 334.442007,126.085145 C339.265388,126.554955 344.08877,126.680237 348.912152,126.774199 L349.977054,126.617596 C351.990915,122.204295 353.58486,117.611217 354.737794,112.899147 L354.957039,110.894625 L353.704213,110.738021 C349.695168,110.738021 345.686124,110.424815 341.677079,110.017646 C338.263127,109.641798 334.755213,109.359912 331.341261,108.890103 C326.705804,108.263689 322.101667,107.511993 317.52885,106.728977 C311.047677,105.591507 304.645355,104.043233 298.360607,102.093519 C293.158051,100.525783 288.13069,98.4266767 283.35801,95.8293873 C280.875972,94.4687694 278.53617,92.8634339 276.373503,91.0373263 C274.195527,89.1027086 272.344614,86.8287296 270.892388,84.3033845 L270.735784,84.4286671 Z" id="Shape" fill="#002E5A"></path>
                    <path d="M516.85353,81.4218837 L518.701449,81.7977317 C524.321206,82.8173963 529.74414,84.7201803 534.768948,87.4354505 C542.05052,91.2974029 547.820459,97.497605 551.149653,105.037661 C552.634237,108.409287 553.585229,111.991358 553.968512,115.655365 C554.344317,118.891399 554.344317,122.160056 553.968512,125.39609 C553.298904,131.584445 551.06799,137.501215 547.485136,142.591133 C543.782263,147.984749 538.89756,152.462394 533.202915,155.683168 C527.235599,159.142893 520.721199,161.557987 513.940709,162.824279 C508.927563,163.80821 503.827446,164.280443 498.718868,164.233709 L425.397203,164.233709 L423.549284,164.233709 L423.549284,163.231447 L423.549284,162.103904 C423.549284,110.090728 423.549284,58.0775519 423.549284,6.06437595 L423.549284,3.99721239 L424.551545,3.84060909 L485.376267,3.84060909 C489.661961,3.77875594 493.948021,3.935563 498.217738,4.31041899 C507.32341,5.10816741 516.207235,7.55997579 524.43313,11.5454914 C528.884472,13.7112765 532.931317,16.6245817 536.397622,20.1586729 C540.512983,24.228204 543.493,29.3028703 545.042124,34.8793831 C545.69939,37.4066043 546.046472,40.0044577 546.075706,42.6155861 C546.152875,46.3075768 545.806079,49.9962271 545.042124,53.6091377 C543.864421,58.8231515 541.274675,63.6125569 537.556486,67.4528694 C535.039265,70.0012562 532.244779,72.2599576 529.225191,74.1868113 C525.647049,76.4945546 521.934149,78.5863297 518.106357,80.4509433 L516.85353,81.5158457 M450.328449,86.0886621 L450.328449,151.4862 L450.328449,152.519782 L478.235157,152.519782 C481.367223,152.519782 484.499289,152.519782 487.819278,152.206575 C492.418573,151.869988 496.97246,151.072533 501.412445,149.826205 C505.506095,148.705649 509.411308,146.985245 513.001089,144.720937 C517.923397,141.640971 521.638549,136.96386 523.524831,131.472298 C524.4197,129.019625 524.916663,126.439647 524.996902,123.830057 C525.090865,121.99378 525.090865,120.153899 524.996902,118.317621 C524.817006,114.16384 523.916168,110.072979 522.334646,106.227846 C519.934284,100.706758 515.843757,96.0898357 510.65204,93.0418486 C507.010269,90.8799161 503.090281,89.2255124 499.000754,88.124505 C493.225648,86.6007022 487.277335,85.8321591 481.304581,85.8380627 C471.469894,85.8380627 461.635207,85.8380627 451.83184,85.8380627 L450.328449,86.0886621 Z M450.516372,76.0973716 L484.499289,76.0973716 C486.676013,76.1231802 488.852126,76.0080973 491.013986,75.7528443 C495.645661,75.1753175 500.116807,73.6849354 504.168663,71.3679519 C510.327618,68.0222414 514.935695,62.4026361 517.010134,55.7076219 C518.832775,49.9867215 519.038722,43.8733627 517.605226,38.0427697 C516.262496,32.0453594 512.762386,26.7506082 507.770539,23.1654563 C504.884864,21.0933395 501.721733,19.4379675 498.374341,18.2481127 C492.008003,16.0207666 485.323727,14.8362113 478.579684,14.7401987 C469.715937,14.5522748 460.789549,14.7401987 451.894482,14.5522748 L450.641655,14.5522748 L450.453731,15.0534053 L450.453731,75.2203931 L450.516372,76.0973716 Z" id="Shape" fill="#002E5A"></path>
                    <rect id="Rectangle" fill="#BF252B" x="587.57558" y="3.71532645" width="166.970438" height="160.205176"></rect>
                    <polyline id="Path" fill="#FFFFFF" points="686.830752 65.8241951 686.830752 26.7986528 655.322168 26.7986528 655.322168 65.8241951 616.296626 65.8241951 616.296626 97.332779 655.322168 97.332779 655.322168 136.358321 686.830752 136.358321 686.830752 97.332779 725.856294 97.332779 725.856294 65.8241951 686.830752 65.8241951"></polyline>
                </g>
            </g>
        </g>
    </g>
</svg>